<?xml version="1.0" standalone="no"?>
<!DOCTYPE svg PUBLIC "-//W3C//DTD SVG 20010904//EN"
 "http://www.w3.org/TR/2001/REC-SVG-20010904/DTD/svg10.dtd">
<svg version="1.0" xmlns="http://www.w3.org/2000/svg"
 width="2048.000000pt" height="512.000000pt" viewBox="0 0 2048.000000 512.000000"
 preserveAspectRatio="xMidYMid meet">

<g transform="translate(0.000000,512.000000) scale(0.100000,-0.100000)"
fill="#000000" stroke="none">
<path d="M1775 4233 c-57 -15 -85 -82 -84 -205 1 -119 16 -178 49 -195 15 -8
65 -13 128 -13 63 0 115 -5 135 -13 66 -28 62 27 64 -821 1 -769 1 -771 -19
-793 -27 -28 -54 -33 -205 -36 -164 -3 -160 1 -169 -178 -9 -172 -3 -204 39
-226 34 -18 112 -20 745 -15 l263 2 26 26 26 26 -6 155 c-4 115 -10 161 -21
178 -17 26 -69 41 -112 32 -40 -7 -90 10 -109 39 -15 23 -16 86 -16 667 0 552
3 649 16 694 15 49 37 83 54 83 11 0 37 -31 45 -55 4 -11 14 -60 22 -108 11
-70 22 -99 50 -142 26 -39 43 -82 60 -154 13 -55 35 -118 48 -139 13 -22 37
-79 52 -128 15 -49 37 -102 49 -119 35 -49 43 -67 75 -186 18 -67 43 -132 60
-157 19 -29 37 -78 52 -144 16 -76 29 -110 52 -139 17 -21 40 -53 51 -71 31
-51 55 -57 180 -49 176 13 218 42 241 172 21 124 32 156 70 214 28 41 39 73
51 141 16 95 29 129 68 183 26 36 36 65 54 166 6 33 24 81 41 108 30 49 63
160 76 255 4 35 16 64 35 88 34 43 45 76 58 177 11 75 30 129 51 142 19 12 37
-14 54 -73 14 -51 16 -138 16 -708 0 -357 -5 -667 -10 -689 -12 -52 -32 -65
-104 -66 -78 0 -127 -17 -143 -49 -9 -18 -12 -70 -10 -179 2 -154 2 -154 29
-174 25 -19 44 -20 470 -21 243 -1 474 1 511 5 104 10 106 14 106 181 1 144
-8 188 -43 217 -12 10 -60 17 -149 22 -154 9 -171 13 -192 45 -14 21 -15 103
-10 753 6 786 6 786 59 825 23 17 48 22 154 26 129 6 164 16 177 47 9 26 6
251 -5 298 -12 54 -38 72 -113 80 -34 3 -256 5 -494 3 l-431 -3 -58 -40 c-61
-42 -63 -45 -84 -157 -6 -31 -21 -72 -34 -90 -32 -48 -56 -113 -72 -197 -9
-46 -28 -99 -49 -137 -23 -42 -42 -95 -55 -159 -11 -53 -38 -140 -61 -193 -22
-53 -49 -141 -60 -194 -14 -75 -30 -119 -69 -192 -57 -105 -70 -120 -99 -111
-26 8 -48 57 -61 139 -12 75 -27 111 -59 140 -24 22 -37 60 -46 136 -8 59 -26
102 -56 136 -12 12 -24 48 -30 85 -13 85 -45 182 -80 246 -16 28 -40 97 -53
153 -17 67 -36 115 -56 143 -18 26 -35 68 -43 108 -17 79 -28 97 -93 146 l-49
38 -465 1 c-256 1 -474 0 -485 -3z"/>
<path d="M5989 4221 c-27 -21 -37 -74 -39 -195 -3 -161 -2 -165 25 -192 25
-25 29 -25 144 -22 132 3 151 -3 151 -56 0 -44 -23 -114 -58 -177 -17 -30 -36
-82 -43 -117 -7 -36 -26 -87 -46 -120 -23 -37 -42 -88 -55 -147 -10 -49 -30
-108 -43 -130 -47 -77 -66 -126 -79 -198 -13 -73 -30 -117 -46 -117 -18 0 -49
-69 -60 -133 -13 -84 -23 -109 -59 -155 -32 -42 -47 -83 -57 -159 -8 -63 -35
-110 -72 -125 -15 -6 -100 -13 -189 -17 -183 -7 -196 -12 -213 -87 -7 -32 -13
-183 -11 -282 2 -46 32 -49 521 -56 470 -6 512 -4 549 33 16 16 18 36 17 167
-2 197 -6 204 -132 224 -38 6 -79 18 -91 26 -33 21 -30 64 7 99 21 20 33 45
41 84 20 100 28 118 57 129 54 21 98 23 453 24 343 1 362 0 387 -19 15 -11 34
-33 42 -49 8 -16 25 -45 38 -65 26 -43 45 -132 36 -172 -9 -43 -57 -64 -156
-66 -37 -2 -48 -51 -48 -215 0 -143 2 -157 20 -174 32 -30 128 -34 597 -26
389 7 426 9 447 25 23 18 24 24 24 161 0 169 -9 215 -44 228 -14 6 -79 10
-145 10 -186 0 -205 14 -259 195 -16 55 -48 134 -69 176 -25 48 -44 100 -51
145 -7 38 -14 79 -16 91 -2 12 -20 39 -39 60 -25 27 -38 53 -45 93 -17 86 -31
122 -61 165 -18 25 -34 68 -44 115 -14 67 -47 161 -77 214 -11 21 -18 43 -48
151 -10 39 -37 105 -59 148 -23 43 -41 90 -41 105 0 48 -20 102 -52 138 -22
25 -38 61 -55 127 -28 105 -43 134 -80 148 -16 6 -187 9 -440 8 -365 -1 -416
-4 -434 -18z m695 -580 c22 -24 42 -89 51 -169 5 -43 14 -72 30 -90 39 -47 58
-95 72 -182 8 -46 22 -98 33 -115 33 -50 47 -88 54 -141 5 -43 3 -55 -15 -77
l-20 -27 -233 0 c-245 0 -261 3 -286 50 -16 30 14 173 53 254 19 39 51 124 71
188 47 148 137 328 166 328 4 0 15 -9 24 -19z"/>
<path d="M8360 4231 c-25 -4 -50 -10 -56 -14 -22 -13 -34 -96 -34 -225 0 -116
2 -132 21 -156 20 -26 22 -26 149 -26 146 0 165 -8 180 -73 4 -21 9 -372 9
-781 1 -718 0 -745 -18 -767 -18 -23 -27 -24 -160 -29 -89 -3 -144 -9 -152
-17 -19 -19 -28 -96 -28 -239 -1 -121 1 -132 20 -150 20 -18 41 -19 513 -16
453 3 493 5 516 21 25 18 25 20 28 183 3 203 0 209 -99 215 -125 8 -134 24
-127 233 7 209 16 220 183 220 52 0 105 -5 119 -11 13 -6 37 -34 52 -63 15
-28 40 -67 56 -86 15 -20 38 -63 51 -96 13 -33 37 -79 54 -102 17 -22 40 -68
53 -101 12 -33 39 -78 59 -100 24 -26 42 -58 50 -91 8 -32 28 -68 52 -96 21
-25 39 -51 39 -59 0 -8 11 -27 24 -42 l24 -28 309 3 c169 2 322 7 339 13 46
14 54 43 54 203 0 135 -1 144 -22 163 -41 36 -51 38 -215 43 -160 5 -162 5
-205 35 -33 24 -49 45 -69 93 -14 34 -37 75 -51 90 -41 43 -109 180 -115 231
-7 60 18 93 82 111 51 14 95 44 95 65 0 7 18 28 40 45 23 18 51 53 64 79 13
25 34 55 46 66 13 11 29 34 36 51 30 72 56 329 44 429 -5 33 -11 98 -15 144
-8 111 -37 198 -90 279 -50 76 -73 98 -168 168 -37 27 -81 59 -97 70 -16 12
-51 25 -77 28 -27 4 -104 22 -173 41 -69 18 -175 38 -237 44 -117 12 -1069 13
-1153 2z m1276 -448 c27 -18 74 -46 105 -62 43 -23 61 -40 78 -73 12 -24 32
-58 46 -76 28 -39 40 -114 33 -214 -5 -58 -11 -77 -41 -121 -19 -29 -46 -75
-60 -103 -14 -27 -32 -56 -40 -63 -47 -38 -509 -79 -578 -51 -52 22 -60 56
-58 258 0 97 4 248 8 336 l6 158 30 25 29 25 197 -4 196 -4 49 -31z"/>
<path d="M11044 4228 c-35 -9 -64 -36 -80 -75 -16 -38 -18 -266 -3 -296 17
-31 72 -47 159 -47 101 0 167 -16 183 -44 16 -28 21 -1494 5 -1544 -15 -48
-55 -62 -173 -62 -95 0 -154 -14 -170 -41 -12 -18 -24 -321 -14 -341 5 -9 24
-21 41 -27 40 -12 267 -17 680 -13 l308 2 17 26 c14 23 17 49 15 183 -3 199
-6 204 -116 212 -117 8 -111 -7 -111 289 0 289 -3 280 101 305 77 19 136 18
226 0 75 -16 112 -40 122 -79 3 -12 24 -39 46 -59 22 -21 47 -52 56 -70 9 -18
33 -50 54 -72 20 -22 47 -65 60 -95 12 -31 40 -71 61 -91 44 -41 51 -77 19
-109 -16 -16 -33 -20 -84 -20 -54 0 -70 -4 -93 -24 l-28 -24 -3 -169 c-3 -161
-3 -169 17 -187 21 -19 43 -19 589 -17 l567 2 23 25 c21 24 22 34 22 173 0
161 -10 208 -43 216 -12 3 -100 6 -196 7 l-174 3 -21 30 c-12 16 -45 53 -73
81 -29 28 -53 59 -53 68 0 9 -17 35 -38 59 -21 23 -52 62 -69 87 -17 25 -41
54 -53 65 -12 11 -34 47 -49 80 -17 38 -41 70 -64 88 -20 15 -45 48 -57 75
-12 26 -31 58 -44 72 -40 44 -83 114 -100 163 -20 59 -17 65 73 166 36 41 75
89 86 107 59 96 121 178 151 197 21 14 44 43 60 76 31 66 142 183 199 211 35
17 61 20 172 20 72 0 139 3 148 6 36 14 44 55 41 208 -2 128 -5 149 -22 173
-11 15 -31 30 -45 33 -13 3 -229 6 -479 5 -333 0 -462 -3 -482 -12 -51 -23
-57 -46 -60 -212 l-3 -153 28 -24 c22 -19 39 -24 82 -24 52 0 85 -16 85 -42 0
-6 -18 -27 -40 -47 -21 -20 -46 -55 -54 -78 -8 -23 -52 -88 -98 -143 -85 -104
-95 -118 -122 -182 -8 -21 -28 -44 -44 -52 -16 -8 -46 -36 -67 -62 l-39 -47
-111 6 c-122 7 -159 16 -169 44 -11 27 -20 450 -12 507 11 73 39 96 116 96 51
0 65 4 85 24 23 23 24 26 19 177 -3 85 -10 166 -16 181 -18 48 -34 50 -492 46
-234 -1 -438 -6 -452 -10z"/>
<path d="M13934 4230 c-12 -5 -25 -14 -29 -20 -27 -44 -27 -330 0 -367 11 -15
34 -19 145 -23 l132 -5 27 -31 c26 -29 29 -40 35 -140 4 -60 6 -405 5 -766 -2
-652 -3 -658 -23 -677 -35 -33 -73 -41 -187 -41 -141 0 -143 -2 -152 -133 -6
-88 -2 -201 9 -254 2 -12 14 -25 27 -29 38 -12 1938 -7 1970 5 36 14 62 72 78
171 12 77 24 106 60 151 13 16 28 64 41 125 10 53 24 107 30 118 19 35 27 87
18 112 -14 35 -49 53 -136 69 -43 9 -93 24 -112 35 -18 11 -42 20 -53 20 -30
0 -64 -40 -84 -101 -10 -30 -33 -76 -51 -104 -18 -27 -38 -71 -44 -97 -22 -87
2 -83 -454 -83 l-401 0 -22 24 c-23 23 -23 29 -23 261 0 254 10 325 50 353 17
12 73 13 306 10 276 -4 286 -3 319 17 19 12 36 29 39 38 3 9 6 67 8 129 2 103
0 114 -22 146 -43 63 -38 62 -341 58 -193 -2 -283 0 -298 8 -11 7 -30 29 -41
50 -18 36 -19 55 -16 247 2 115 7 223 11 241 14 64 7 63 383 66 393 2 367 9
397 -98 9 -33 32 -87 50 -120 18 -33 36 -78 40 -100 19 -100 51 -122 159 -105
55 8 79 18 106 41 19 16 55 39 80 51 54 25 80 46 80 66 0 7 -16 39 -35 70 -21
36 -42 90 -55 146 -12 48 -32 111 -44 140 -33 72 -46 112 -62 185 -18 77 -37
116 -67 133 -17 10 -212 13 -927 15 -498 0 -915 -3 -926 -7z"/>
<path d="M16520 4233 c-104 -16 -102 -8 -107 -440 l-4 -353 25 -25 c25 -25 27
-25 195 -25 222 0 207 -14 213 204 3 133 7 168 21 189 l17 27 180 0 c171 0
180 -1 205 -22 37 -33 42 -87 46 -498 1 -195 3 -382 3 -415 1 -33 -3 -194 -8
-358 -11 -376 3 -350 -182 -357 -167 -7 -162 -1 -171 -201 -7 -177 -4 -196 43
-215 50 -21 1107 -9 1142 12 21 14 22 19 22 182 0 229 10 216 -164 222 -134 5
-138 6 -161 32 l-23 27 2 763 c2 579 5 768 14 786 27 49 52 55 190 48 146 -8
205 -27 224 -73 6 -16 11 -82 11 -158 -1 -182 11 -200 127 -197 90 2 130 12
144 35 10 17 12 106 12 387 -1 201 -5 372 -9 380 -23 46 8 45 -1017 46 -531 1
-976 0 -990 -3z"/>
</g>
</svg>
